PathFileType	4	(X/Y/Z)	Patient4_TMGait_0pt6_02_right_38.trc.trc
DataRate	CameraRate	NumFrames	NumMarkers	Units	OrigDataRate	OrigDataStartFrame	OrigNumFrames
79.096045197740	79.096045197740	5	33	mm	79.096045197740	89	       141
Frame#	Time	Sacral			L.Shoulder			Chest			R.Shoulder			Neck			R.ASIS			L.ASIS			R.Thigh.Superior			R.Thigh.Lateral			R.Thigh.Inferior			R.Patella			L.Thigh.Superior			L.Thigh.Lateral			L.Thigh.Inferior			L.Patella			L.Shank.Superior			L.Shank.Lateral			L.Shank.Inferior			R.Shank.Superior			R.Shank.Lateral			R.Shank.Inferior			R.Heel			R.Midfoot.Superior			R.Midfoot.Lateral			R.Toe			L.Heel			L.Midfoot.Lateral			L.Midfoot.Superior			L.Toe			L.Elbow			L.Wrist			R.Elbow			R.Wrist			
		X1	Y1	Z1	X2	Y2	Z2	X3	Y3	Z3	X4	Y4	Z4	X5	Y5	Z5	X6	Y6	Z6	X7	Y7	Z7	X8	Y8	Z8	X9	Y9	Z9	X10	Y10	Z10	X11	Y11	Z11	X12	Y12	Z12	X13	Y13	Z13	X14	Y14	Z14	X15	Y15	Z15	X16	Y16	Z16	X17	Y17	Z17	X18	Y18	Z18	X19	Y19	Z19	X20	Y20	Z20	X21	Y21	Z21	X22	Y22	Z22	X23	Y23	Z23	X24	Y24	Z24	X25	Y25	Z25	X26	Y26	Z26	X27	Y27	Z27	X28	Y28	Z28	X29	Y29	Z29	X30	Y30	Z30	X31	Y31	Z31	X32	Y32	Z32	X33	Y33	Z33	

89	46.872571428571	822.968346664765	1014.713500818178	480.336278203711	1023.214982125714	1444.014299166164	327.992750929856	1122.287668710615	1356.261306674045	481.665523692242	1043.447506699551	1427.029035624531	659.321522030540	1033.114053439024	1493.362324395409	480.665715051186	1042.504913004627	939.575203997264	602.302420590014	1038.197310463292	960.430886405832	328.559365490680	1067.249432740107	732.306115327347	587.438426304432	974.324510073521	630.956114826882	647.840576241885	1055.258021982290	565.734182064266	580.194808196321	1040.312824280228	460.288840471203	600.678296430219	1096.330459128063	760.795425471249	364.719120347453	1021.612940961577	636.669373295772	302.292287984206	1109.916067685227	566.348920175323	370.303883104085	1115.842477810733	495.811611831964	381.437032641494	1091.660775751774	422.343811187328	372.917439318902	1009.739549341902	305.164575402999	316.339119758569	1058.239174343549	195.799271082378	391.385801226808	965.711887008933	394.077279045627	602.880870368672	844.120059132058	346.695027603551	654.582256100565	842.111237694875	235.896109277647	605.074033211149	647.333289611201	145.147349122511	566.136325488372	819.975443885532	113.014402083559	609.325911390927	712.363757933259	91.628919760324	637.590756995509	902.132994796156	32.951860969380	631.267959150078	931.799689564970	38.201059628220	424.006405677102	1010.962065870446	36.490553353548	348.502436038234	1092.019782012672	96.953658923595	381.727571147113	1222.541325835725	43.461059602823	361.567498778312	902.735802917246	1127.145489868156	182.165861194496	1028.801588849645	895.906387616069	177.998021527412	967.018466920294	1092.084993177904	782.493181775001	1111.092875860176	876.978605293408	758.019380355372	
90	46.885214285714	822.370841476121	1014.765282867395	478.094040239025	1023.662065261963	1444.032305809697	325.483302496402	1122.254279078687	1356.436429876222	479.534863986877	1042.842728824184	1427.335415569669	656.930014618021	1033.015242655363	1493.478898917617	478.145411504128	1042.056946105595	939.882165036339	600.150555747963	1038.008903148266	960.399312106717	326.416671858347	1072.533833410130	734.510429230926	585.514726834348	983.333150350110	631.055795908299	646.877747337890	1065.744536795471	567.381522264125	578.772151485205	1052.405167567811	460.539953169216	599.946660781271	1095.040801721101	759.816227211829	363.021961031065	1019.265579618887	636.425196600943	300.826246971716	1106.493434002575	565.456270071660	369.335177426200	1111.705963217693	494.908220318183	380.570821508190	1087.030210522506	421.485131195012	372.121098568413	1004.357631100975	304.782269448241	315.689797633064	1051.640764976783	195.279901810272	391.231843629800	975.858750528451	394.996970313989	602.470912489341	852.899627406967	351.801726720831	654.696441601099	846.930170122611	241.135866948609	605.715725427824	649.621235364999	160.547481984542	567.110587869812	819.562306656853	117.179410865661	610.739542572126	710.757250325450	102.395356967555	638.190650274587	895.260371535311	31.726283453274	631.842133196199	924.129590763806	38.171055513800	423.964444461677	1003.297001256779	36.412969477067	348.456259862615	1084.442351925956	96.777853950152	381.753943839800	1214.951067433306	43.056977732703	361.598701266286	905.025438383094	1127.068872800765	178.443653824486	1037.281279557025	899.565986404077	178.445463585114	961.536810416981	1093.725272800658	780.526863132006	1095.518747091132	871.017434600260	762.820923110629	
91	46.897857142857	821.602460935930	1014.734852051755	475.977800689651	1024.015181779340	1443.962170746663	323.130989818377	1122.087495751077	1356.503559010739	477.578826853513	1042.077171192905	1427.575028800566	654.682436515458	1032.846142093154	1493.527772665841	475.775001237862	1041.435849149307	940.129755845358	598.184835011729	1037.672026757185	960.331943053629	324.421860244340	1077.848315648626	737.100321761242	583.476206506360	992.753828538411	631.515747992888	645.934382330089	1076.556859939427	569.567169318253	577.208505290863	1065.076156104652	461.386669971537	598.942215592644	1093.648177417065	758.875760308867	361.483323597164	1016.893243295540	636.217689878080	299.408473452577	1103.034357627316	564.595182124268	368.414967138977	1107.544195724213	494.022471447488	379.715458047471	1082.370044800207	420.639470892987	371.333114207031	998.936060402726	304.425963490159	315.049010691104	1045.050786207190	194.776505146615	391.040832843338	986.727012039815	396.375512603820	601.845526992435	862.573798917752	357.278778431031	654.631430180329	852.757290172434	246.880173697997	606.154527508881	653.554171229093	176.636415746550	567.837413395205	820.170547497803	122.080553991220	612.026330443056	710.445414478203	114.068157512207	638.629938184367	889.029628455821	30.546070568797	632.444146097462	916.482999232332	38.153341004365	423.901452156990	995.648842735509	36.351918064459	348.385628532493	1076.874652879906	96.631267186940	381.741168923112	1207.369090934034	42.706650334468	361.591351283378	907.558558688151	1126.833531746360	174.808409712358	1046.267320845407	903.625602707046	179.114691733142	956.099760228492	1095.310506434228	778.649638830778	1079.663014742048	865.763368577773	767.145404425986	
92	46.910500000000	820.705795302976	1014.654461950559	473.988090591286	1024.280388891670	1443.835908018141	320.949203696403	1121.797694434391	1356.502428344470	475.811163185648	1041.155666668504	1427.786739425928	652.589395974033	1032.616668824460	1493.540220999899	473.566168977941	1040.659549245215	940.358356185501	596.424383842191	1037.221581614251	960.265956608112	322.604043655767	1083.040334356095	740.090323223266	581.304452571758	1002.392170791078	632.416806886032	644.998277470163	1087.473641760028	572.352441591511	575.507034698842	1078.125773180037	462.895201933150	597.698134492468	1092.177220220828	757.971502269190	360.041698132377	1014.420661915863	636.034086402549	298.068565182344	1099.509014995156	563.751821660259	367.519015617687	1103.330920169343	493.159121212433	378.889187373751	1077.657235297829	419.819598731155	370.573509921973	993.458231727948	304.106381677326	314.431901723790	1038.459480775622	194.297882649790	390.823125781169	998.134905433611	398.273021908668	601.016995482188	872.962346143135	363.070906623339	654.349097386452	859.535888641745	253.038647092886	606.350433768222	659.083719116826	192.926586113535	568.259001532133	821.924975418025	127.642991024726	613.106827000815	711.563496522802	126.291624023617	638.845601476407	883.798151349719	29.595665862524	632.973185134592	908.857865501316	38.147777768277	423.819834131591	988.016108633033	36.306018105367	348.294528336575	1069.314689867819	96.513389026629	381.691175075941	1199.792960734936	42.409750403459	361.544253922085	910.344522639770	1126.454210493466	171.313545498647	1055.683023434159	908.099428509065	180.010292982011	950.707372666899	1096.862960095373	776.854734703239	1063.670968408152	861.251138407918	770.923540905097	
93	46.923142857143	819.726214995739	1014.558970695819	472.126736726711	1024.477386733757	1443.687977232861	318.944346774951	1121.401627176128	1356.475254937347	474.242332552557	1040.086449735308	1428.008571244107	650.656796587200	1032.336539711354	1493.548353224539	471.525329963486	1039.748342226075	940.610776355593	594.880930491409	1036.696726825654	960.232937196585	320.988879043750	1087.980256813051	743.479751835757	579.010080950364	1012.052459677862	633.816211931207	644.066114835519	1098.288022867101	575.772524853644	573.696038532456	1091.352318124703	465.110650095326	596.268552875586	1090.637440111055	757.090250673617	358.654336245268	1011.786705945213	635.865406005837	296.833644070564	1095.880112243586	562.914254304759	366.643389238750	1099.026590353827	492.320013113667	378.114407278170	1072.858902168439	419.037512227054	369.861884952143	987.901920671112	303.830601567203	313.852868760967	1031.851273458912	193.852086056671	390.591023999482	1009.902442386081	400.724808972684	600.020377127262	883.879464765982	369.091610603285	653.833760163885	867.201378770292	259.478157578580	606.285011862161	666.090972309651	208.852461711613	568.349253504406	824.956112923104	133.720595808048	613.907149572736	714.221559433568	138.611165881408	638.790090841533	879.995094318848	29.077080824797	633.312389793995	901.248173895238	38.153801573520	423.723239940373	980.395058718900	36.272997186302	348.189012544733	1061.759295459482	96.420773872056	381.609639528069	1192.218575560709	42.160051454224	361.462051545892	913.374250006737	1125.959017387315	168.009231806818	1065.432172820103	912.997570108810	181.130738413137	945.370642863119	1098.404049183325	775.132169353899	1047.697336459502	857.496863362507	774.102203326890	
